<svg xmlns="http://www.w3.org/2000/svg" viewBox="0 0 64 64" role="img" aria-label="Tu Vi bagua yin yang logo">
  <rect width="64" height="64" rx="12" fill="#fffdf8"/>
  <circle cx="32" cy="32" r="27" fill="#f8f4eb" stroke="#26352f" stroke-width="2"/>
  <g stroke="#26352f" stroke-width="2.6" stroke-linecap="round">
    <path d="M32 2v7"/>
    <path d="M32 55v7"/>
    <path d="M2 32h7"/>
    <path d="M55 32h7"/>
    <path d="M10.8 10.8l5 5"/>
    <path d="M48.2 48.2l5 5"/>
    <path d="M53.2 10.8l-5 5"/>
    <path d="M15.8 48.2l-5 5"/>
  </g>
  <circle cx="32" cy="32" r="19" fill="#31576a" stroke="#26352f" stroke-width="1.8"/>
  <path d="M32 13a9.5 9.5 0 0 1 0 19a9.5 9.5 0 0 0 0 19a19 19 0 0 1 0-38z" fill="#fffdf8"/>
  <circle cx="32" cy="22.5" r="3.5" fill="#31576a"/>
  <circle cx="32" cy="41.5" r="3.5" fill="#fffdf8"/>
  <circle cx="32" cy="32" r="19" fill="none" stroke="#26352f" stroke-width="1.8"/>
  <circle cx="32" cy="32" r="27" fill="none" stroke="#ae7941" stroke-width="1" opacity=".85"/>
</svg>
